<svg xmlns="http://www.w3.org/2000/svg" xmlns:xlink="http://www.w3.org/1999/xlink" width="500" zoomAndPan="magnify" viewBox="0 0 375 374.999991" height="500" preserveAspectRatio="xMidYMid meet" version="1.0"><defs><clipPath id="9304b6d8bb"><path d="M 190 115.296875 L 255.558594 115.296875 L 255.558594 260.046875 L 190 260.046875 Z M 190 115.296875 " clip-rule="nonzero"/></clipPath><clipPath id="b5c8d69c6e"><path d="M 119.808594 115.296875 L 185 115.296875 L 185 260.046875 L 119.808594 260.046875 Z M 119.808594 115.296875 " clip-rule="nonzero"/></clipPath></defs><rect x="-37.5" width="450" fill="#ffffff" y="-37.499999" height="449.999989" fill-opacity="1"/><rect x="-37.5" width="450" fill="#ffffff" y="-37.499999" height="449.999989" fill-opacity="1"/><rect x="-37.5" width="450" fill="#c3fffc" y="-37.499999" height="449.999989" fill-opacity="1"/><path fill="#56aeff" d="M 208.515625 236.640625 C 208.515625 238.671875 206.867188 240.316406 204.835938 240.316406 C 202.804688 240.316406 201.15625 238.671875 201.15625 236.640625 C 201.15625 234.609375 202.804688 232.960938 204.835938 232.960938 C 206.867188 232.960938 208.515625 234.609375 208.515625 236.640625 " fill-opacity="1" fill-rule="nonzero"/><path fill="#145da0" d="M 230.96875 224.292969 C 230.96875 226.324219 229.324219 227.972656 227.292969 227.972656 C 225.257812 227.972656 223.613281 226.324219 223.613281 224.292969 C 223.613281 222.261719 225.257812 220.617188 227.292969 220.617188 C 229.324219 220.617188 230.96875 222.261719 230.96875 224.292969 " fill-opacity="1" fill-rule="nonzero"/><path fill="#56aeff" d="M 129.117188 208.777344 C 127.238281 206.972656 126.203125 204.550781 126.203125 201.957031 C 126.203125 199.566406 127.105469 197.28125 128.75 195.519531 L 128.941406 195.3125 C 129.730469 194.464844 129.90625 193.214844 129.390625 192.179688 L 129.261719 191.929688 C 128.589844 190.589844 128.25 189.164062 128.25 187.691406 C 128.25 185.304688 129.152344 183.015625 130.792969 181.253906 L 131.027344 181.003906 C 131.945312 180.015625 132.023438 178.511719 131.203125 177.4375 L 130.996094 177.164062 C 129.582031 175.304688 128.910156 173.054688 129.085938 170.714844 C 129.515625 165.039062 135.53125 160.40625 141.058594 162.636719 C 143.75 163.722656 145.816406 166.097656 146.507812 168.917969 C 146.808594 170.148438 147.875 171.03125 149.140625 170.976562 L 149.445312 170.960938 C 151.082031 170.890625 152.214844 169.339844 151.839844 167.742188 C 150.328125 161.3125 144.546875 156.511719 137.660156 156.511719 C 137.160156 156.511719 136.671875 156.546875 136.179688 156.59375 C 136.160156 156.351562 136.144531 156.109375 136.144531 155.867188 C 136.144531 152.777344 138 150.03125 140.875 148.871094 L 140.949219 148.839844 C 142.1875 148.300781 142.953125 147.039062 142.855469 145.691406 L 142.851562 145.632812 C 142.839844 145.46875 142.824219 145.304688 142.824219 145.140625 C 142.824219 141.53125 145.394531 138.417969 148.9375 137.738281 C 150.453125 137.445312 151.542969 136.105469 151.515625 134.5625 C 151.515625 134.492188 151.511719 134.421875 151.507812 134.34375 C 151.542969 130.21875 154.917969 126.867188 159.054688 126.867188 C 160.230469 126.867188 161.308594 127.097656 162.253906 127.832031 C 163.484375 128.789062 164.484375 130.148438 165.011719 131.617188 C 165.285156 132.375 165.441406 133.132812 165.496094 133.867188 C 165.601562 135.320312 166.875 136.375 168.320312 136.210938 L 169.167969 136.113281 C 170.476562 135.96875 171.4375 134.8125 171.34375 133.496094 C 171.050781 129.335938 169.003906 125.738281 165.988281 123.34375 C 167.386719 122.269531 169.101562 121.664062 170.910156 121.664062 C 175.085938 121.664062 178.605469 124.855469 179.09375 129.089844 L 179.15625 129.503906 L 179.15625 245.730469 L 179.109375 246.183594 C 178.667969 250.476562 175.144531 253.71875 170.910156 253.71875 C 168.855469 253.71875 166.886719 252.941406 165.367188 251.527344 L 165.246094 251.414062 C 164.722656 250.929688 164.035156 250.664062 163.320312 250.675781 L 163.15625 250.675781 L 162.949219 250.6875 C 159.003906 250.652344 155.523438 248.152344 154.164062 244.550781 C 158.589844 242.1875 161.613281 237.523438 161.613281 232.164062 C 161.613281 232.0625 161.609375 231.957031 161.609375 231.855469 C 161.574219 230.328125 160.109375 229.234375 158.628906 229.609375 L 158.238281 229.707031 C 157.113281 229.988281 156.34375 231.003906 156.339844 232.164062 C 156.328125 236.398438 153.335938 239.917969 149.363281 240.746094 C 149.007812 240.789062 148.664062 240.816406 148.328125 240.816406 C 143.105469 240.816406 138.855469 236.570312 138.855469 231.347656 C 138.855469 231.046875 138.871094 230.730469 138.902344 230.40625 L 138.941406 230.023438 C 139.078125 228.617188 138.140625 227.308594 136.761719 227.042969 C 134.609375 226.625 132.503906 225.84375 130.992188 224.261719 C 127.734375 220.855469 127.507812 216.214844 129.632812 212.71875 L 129.800781 212.441406 C 130.476562 211.332031 130.289062 209.90625 129.355469 209.003906 L 129.117188 208.777344 " fill-opacity="1" fill-rule="nonzero"/><g clip-path="url(#9304b6d8bb)"><path fill="#051d40" d="M 246.25 208.777344 L 246.015625 209.003906 C 245.078125 209.90625 244.894531 211.332031 245.566406 212.441406 L 245.738281 212.71875 C 247.859375 216.214844 247.632812 220.855469 244.378906 224.261719 C 242.863281 225.84375 240.757812 226.625 238.605469 227.042969 C 237.230469 227.308594 236.289062 228.617188 236.429688 230.023438 L 236.464844 230.40625 C 236.496094 230.730469 236.515625 231.046875 236.515625 231.347656 C 236.515625 236.570312 232.265625 240.816406 227.042969 240.816406 C 226.703125 240.816406 226.359375 240.789062 226.007812 240.746094 C 222.035156 239.917969 219.039062 236.398438 219.027344 232.164062 C 219.027344 231.003906 218.253906 229.988281 217.132812 229.707031 L 216.742188 229.609375 C 215.257812 229.234375 213.796875 230.328125 213.761719 231.855469 C 213.757812 231.957031 213.757812 232.0625 213.757812 232.164062 C 213.757812 237.523438 216.777344 242.1875 221.203125 244.550781 C 219.84375 248.152344 216.363281 250.652344 212.417969 250.6875 L 212.214844 250.675781 L 212.050781 250.675781 C 211.335938 250.664062 210.644531 250.929688 210.121094 251.414062 L 210 251.527344 C 208.480469 252.941406 206.511719 253.71875 204.460938 253.71875 C 200.226562 253.71875 196.699219 250.476562 196.261719 246.183594 L 196.214844 245.730469 L 196.214844 129.503906 L 196.273438 129.089844 C 196.765625 124.855469 200.285156 121.664062 204.460938 121.664062 C 206.269531 121.664062 207.980469 122.269531 209.382812 123.34375 C 206.367188 125.738281 204.320312 129.335938 204.027344 133.496094 C 203.929688 134.8125 204.890625 135.96875 206.203125 136.113281 L 207.050781 136.210938 C 208.496094 136.375 209.769531 135.320312 209.875 133.867188 C 209.929688 133.132812 210.085938 132.375 210.359375 131.617188 C 210.886719 130.148438 211.886719 128.789062 213.113281 127.832031 C 214.058594 127.097656 215.136719 126.867188 216.3125 126.867188 C 220.453125 126.867188 223.824219 130.21875 223.863281 134.34375 C 223.859375 134.421875 223.855469 134.492188 223.851562 134.5625 C 223.828125 136.105469 224.914062 137.445312 226.429688 137.738281 C 229.972656 138.417969 232.546875 141.53125 232.546875 145.140625 C 232.546875 145.304688 232.53125 145.46875 232.515625 145.632812 L 232.511719 145.691406 C 232.414062 147.039062 233.179688 148.300781 234.421875 148.839844 L 234.496094 148.871094 C 237.367188 150.03125 239.222656 152.777344 239.222656 155.867188 C 239.222656 156.109375 239.210938 156.351562 239.1875 156.59375 C 238.699219 156.546875 238.207031 156.511719 237.707031 156.511719 C 230.820312 156.511719 225.042969 161.3125 223.527344 167.742188 C 223.152344 169.339844 224.289062 170.890625 225.925781 170.960938 L 226.226562 170.976562 C 227.492188 171.03125 228.5625 170.148438 228.863281 168.917969 C 229.554688 166.097656 231.617188 163.722656 234.308594 162.636719 C 239.835938 160.40625 245.851562 165.039062 246.28125 170.714844 C 246.457031 173.054688 245.789062 175.304688 244.371094 177.164062 L 244.164062 177.4375 C 243.347656 178.511719 243.421875 180.015625 244.339844 181.003906 L 244.574219 181.253906 C 246.214844 183.015625 247.121094 185.304688 247.121094 187.691406 C 247.121094 189.164062 246.777344 190.589844 246.105469 191.929688 L 245.980469 192.179688 C 245.460938 193.214844 245.636719 194.464844 246.429688 195.3125 L 246.621094 195.519531 C 248.261719 197.28125 249.164062 199.566406 249.164062 201.957031 C 249.164062 204.550781 248.128906 206.972656 246.25 208.777344 Z M 255.523438 201.957031 C 255.523438 198.664062 254.503906 195.492188 252.613281 192.832031 C 253.1875 191.179688 253.480469 189.457031 253.480469 187.691406 C 253.480469 184.535156 252.539062 181.488281 250.796875 178.898438 C 252.027344 176.613281 252.667969 174.078125 252.667969 171.449219 C 252.667969 165.980469 249.886719 161.007812 245.394531 158.132812 C 245.519531 157.386719 245.582031 156.628906 245.582031 155.867188 C 245.582031 150.917969 243 146.445312 238.855469 143.960938 C 238.402344 138.65625 234.9375 134.09375 230.042969 132.1875 C 228.972656 125.578125 223.222656 120.511719 216.3125 120.511719 C 216.074219 120.511719 215.832031 120.519531 215.589844 120.53125 C 212.835938 117.230469 208.804688 115.308594 204.460938 115.308594 C 197.984375 115.308594 192.402344 119.597656 190.527344 125.648438 L 190.527344 249.710938 C 192.390625 255.78125 197.945312 260.074219 204.460938 260.074219 C 207.699219 260.074219 210.816406 258.992188 213.359375 257.007812 C 219.445312 256.617188 224.75 252.722656 227.011719 247.175781 L 227.042969 247.175781 C 235.359375 247.175781 242.203125 240.726562 242.828125 232.570312 C 249.136719 230.414062 253.480469 224.503906 253.480469 217.621094 C 253.480469 215.542969 253.0625 213.484375 252.265625 211.570312 C 254.382812 208.824219 255.523438 205.484375 255.523438 201.957031 " fill-opacity="1" fill-rule="nonzero"/></g><g clip-path="url(#b5c8d69c6e)"><path fill="#051d40" d="M 126.203125 201.957031 C 126.203125 199.566406 127.105469 197.28125 128.75 195.519531 L 128.941406 195.3125 C 129.730469 194.464844 129.90625 193.214844 129.390625 192.179688 L 129.261719 191.929688 C 128.589844 190.589844 128.25 189.164062 128.25 187.691406 C 128.25 185.304688 129.152344 183.015625 130.792969 181.253906 L 131.027344 181.003906 C 131.945312 180.015625 132.023438 178.511719 131.203125 177.4375 L 130.996094 177.164062 C 129.582031 175.304688 128.910156 173.054688 129.085938 170.714844 C 129.515625 165.039062 135.53125 160.40625 141.058594 162.636719 C 143.75 163.722656 145.816406 166.097656 146.507812 168.917969 C 146.808594 170.148438 147.878906 171.03125 149.140625 170.976562 L 149.445312 170.960938 C 151.082031 170.890625 152.214844 169.339844 151.839844 167.742188 C 150.328125 161.3125 144.546875 156.511719 137.660156 156.511719 C 137.160156 156.511719 136.671875 156.546875 136.179688 156.59375 C 136.160156 156.351562 136.144531 156.109375 136.144531 155.867188 C 136.144531 152.777344 138 150.03125 140.875 148.871094 L 140.949219 148.839844 C 142.1875 148.300781 142.953125 147.039062 142.855469 145.691406 L 142.851562 145.632812 C 142.839844 145.46875 142.824219 145.304688 142.824219 145.140625 C 142.824219 141.53125 145.394531 138.417969 148.9375 137.738281 C 150.453125 137.445312 151.542969 136.105469 151.515625 134.5625 C 151.515625 134.492188 151.511719 134.421875 151.507812 134.34375 C 151.542969 130.21875 154.917969 126.867188 159.054688 126.867188 C 160.230469 126.867188 161.308594 127.097656 162.253906 127.832031 C 163.484375 128.789062 164.484375 130.148438 165.011719 131.617188 C 165.285156 132.375 165.441406 133.132812 165.496094 133.867188 C 165.601562 135.320312 166.875 136.375 168.320312 136.210938 L 169.167969 136.113281 C 170.476562 135.96875 171.4375 134.8125 171.34375 133.496094 C 171.050781 129.335938 169.003906 125.738281 165.988281 123.34375 C 167.386719 122.269531 169.101562 121.664062 170.910156 121.664062 C 175.085938 121.664062 178.605469 124.855469 179.09375 129.089844 L 179.15625 129.503906 L 179.15625 245.730469 L 179.109375 246.183594 C 178.667969 250.476562 175.144531 253.71875 170.910156 253.71875 C 168.855469 253.71875 166.886719 252.941406 165.367188 251.527344 L 165.246094 251.414062 C 164.722656 250.929688 164.035156 250.664062 163.320312 250.675781 L 163.15625 250.675781 L 162.949219 250.6875 C 159.003906 250.652344 155.523438 248.152344 154.164062 244.550781 C 158.589844 242.1875 161.613281 237.523438 161.613281 232.164062 C 161.613281 232.0625 161.609375 231.957031 161.609375 231.855469 C 161.574219 230.328125 160.109375 229.234375 158.628906 229.609375 L 158.238281 229.707031 C 157.113281 229.988281 156.34375 231.003906 156.339844 232.164062 C 156.328125 236.398438 153.335938 239.917969 149.363281 240.746094 C 149.007812 240.789062 148.664062 240.816406 148.328125 240.816406 C 143.105469 240.816406 138.855469 236.570312 138.855469 231.347656 C 138.855469 231.046875 138.871094 230.730469 138.902344 230.40625 L 138.941406 230.023438 C 139.078125 228.617188 138.140625 227.308594 136.761719 227.042969 C 134.609375 226.625 132.503906 225.84375 130.992188 224.261719 C 127.734375 220.855469 127.507812 216.214844 129.632812 212.71875 L 129.800781 212.441406 C 130.476562 211.332031 130.289062 209.90625 129.355469 209.003906 L 129.117188 208.777344 C 127.238281 206.972656 126.203125 204.550781 126.203125 201.957031 Z M 123.101562 211.570312 C 122.308594 213.484375 121.890625 215.542969 121.890625 217.621094 C 121.890625 224.503906 126.234375 230.414062 132.542969 232.570312 C 133.167969 240.726562 140.007812 247.175781 148.328125 247.175781 L 148.359375 247.175781 C 150.621094 252.722656 155.925781 256.617188 162.007812 257.007812 C 164.554688 258.992188 167.667969 260.074219 170.910156 260.074219 C 177.425781 260.074219 182.980469 255.78125 184.84375 249.710938 L 184.84375 125.648438 C 182.964844 119.597656 177.386719 115.308594 170.910156 115.308594 C 166.5625 115.308594 162.535156 117.230469 159.777344 120.53125 C 159.535156 120.519531 159.296875 120.511719 159.054688 120.511719 C 152.144531 120.511719 146.394531 125.578125 145.328125 132.1875 C 140.429688 134.09375 136.96875 138.65625 136.515625 143.960938 C 132.367188 146.445312 129.785156 150.917969 129.785156 155.867188 C 129.785156 156.628906 129.847656 157.386719 129.972656 158.132812 C 125.480469 161.007812 122.699219 165.980469 122.699219 171.449219 C 122.699219 174.078125 123.34375 176.613281 124.570312 178.898438 C 122.832031 181.488281 121.890625 184.535156 121.890625 187.691406 C 121.890625 189.457031 122.179688 191.179688 122.753906 192.832031 C 120.867188 195.492188 119.84375 198.664062 119.84375 201.957031 C 119.84375 205.484375 120.988281 208.824219 123.101562 211.570312 " fill-opacity="1" fill-rule="nonzero"/></g><path fill="#56aeff" d="M 208.953125 154.375 C 208.953125 156.648438 207.109375 158.492188 204.835938 158.492188 C 202.5625 158.492188 200.71875 156.648438 200.71875 154.375 C 200.71875 152.101562 202.5625 150.257812 204.835938 150.257812 C 207.109375 150.257812 208.953125 152.101562 208.953125 154.375 " fill-opacity="1" fill-rule="nonzero"/><path fill="#145da0" d="M 228.84375 153.199219 C 228.84375 155.472656 227.003906 157.316406 224.726562 157.316406 C 222.453125 157.316406 220.609375 155.472656 220.609375 153.199219 C 220.609375 150.925781 222.453125 149.082031 224.726562 149.082031 C 227.003906 149.082031 228.84375 150.925781 228.84375 153.199219 " fill-opacity="1" fill-rule="nonzero"/><path fill="#145da0" d="M 215.324219 175.738281 C 215.324219 179.796875 212.035156 183.085938 207.972656 183.085938 C 203.914062 183.085938 200.621094 179.796875 200.621094 175.738281 C 200.621094 171.679688 203.914062 168.386719 207.972656 168.386719 C 212.035156 168.386719 215.324219 171.679688 215.324219 175.738281 " fill-opacity="1" fill-rule="nonzero"/><path fill="#145da0" d="M 214.148438 215.519531 C 214.148438 219.578125 210.859375 222.871094 206.796875 222.871094 C 202.738281 222.871094 199.445312 219.578125 199.445312 215.519531 C 199.445312 211.460938 202.738281 208.171875 206.796875 208.171875 C 210.859375 208.171875 214.148438 211.460938 214.148438 215.519531 " fill-opacity="1" fill-rule="nonzero"/><path fill="#56aeff" d="M 232.078125 200.820312 C 232.078125 204.878906 228.789062 208.171875 224.726562 208.171875 C 220.667969 208.171875 217.375 204.878906 217.375 200.820312 C 217.375 196.761719 220.667969 193.472656 224.726562 193.472656 C 228.789062 193.472656 232.078125 196.761719 232.078125 200.820312 " fill-opacity="1" fill-rule="nonzero"/><path fill="#56aeff" d="M 234.648438 179.414062 C 234.648438 181.445312 233.003906 183.09375 230.96875 183.09375 C 228.941406 183.09375 227.292969 181.445312 227.292969 179.414062 C 227.292969 177.382812 228.941406 175.738281 230.96875 175.738281 C 233.003906 175.738281 234.648438 177.382812 234.648438 179.414062 " fill-opacity="1" fill-rule="nonzero"/><path fill="#56aeff" d="M 219.003906 142.8125 C 219.003906 144.84375 217.355469 146.488281 215.324219 146.488281 C 213.292969 146.488281 211.644531 144.84375 211.644531 142.8125 C 211.644531 140.78125 213.292969 139.132812 215.324219 139.132812 C 217.355469 139.132812 219.003906 140.78125 219.003906 142.8125 " fill-opacity="1" fill-rule="nonzero"/><path fill="#56aeff" d="M 214.15625 192.394531 C 214.15625 194.425781 212.507812 196.074219 210.476562 196.074219 C 208.445312 196.074219 206.796875 194.425781 206.796875 192.394531 C 206.796875 190.363281 208.445312 188.71875 210.476562 188.71875 C 212.507812 188.71875 214.15625 190.363281 214.15625 192.394531 " fill-opacity="1" fill-rule="nonzero"/><path fill="#145da0" d="M 244 204.5 C 244 206.53125 242.351562 208.175781 240.320312 208.175781 C 238.289062 208.175781 236.640625 206.53125 236.640625 204.5 C 236.640625 202.46875 238.289062 200.820312 240.320312 200.820312 C 242.351562 200.820312 244 202.46875 244 204.5 " fill-opacity="1" fill-rule="nonzero"/></svg>